<svg width="180" height="73" viewBox="0 0 180 73" fill="none" xmlns="http://www.w3.org/2000/svg">
<path d="M164.166 61.62C155.238 61.62 147.178 55.544 147.178 44.942C147.178 34.03 155.3 28.14 163.608 28.14C171.792 28.14 181.402 33.844 179.356 48.6H156.416C157.718 52.072 160.942 53.808 165.22 53.808C168.072 53.808 170.614 53.126 172.97 51.328L177.31 55.854C174.644 59.202 170.056 61.62 164.166 61.62ZM156.23 41.718H170.924C170.242 37.998 166.956 36.2 163.732 36.2C160.508 36.2 157.284 37.874 156.23 41.718Z" fill="#010B08"/>
<path d="M133.909 61V16.98H143.519V61H133.909Z" fill="#010B08"/>
<path d="M95.5364 72.78V28.76H105.146V32.418H105.332C105.828 31.24 109.176 28.14 114.88 28.14C122.196 28.14 130.256 33.658 130.256 44.88C130.256 56.102 122.196 61.62 114.88 61.62C109.176 61.62 105.828 58.52 105.332 57.342H105.146V72.78H95.5364ZM104.898 44.88C104.898 50.15 108.68 53.064 112.896 53.064C116.988 53.064 120.77 50.088 120.77 44.88C120.77 39.672 116.988 36.696 112.896 36.696C108.68 36.696 104.898 39.61 104.898 44.88Z" fill="#010B08"/>
<path d="M70.9902 61.62C63.6742 61.62 55.6142 56.102 55.6142 44.88C55.6142 33.658 63.6742 28.14 70.9902 28.14C76.6942 28.14 80.0422 31.24 80.5382 32.418H80.7242V28.76H90.3342V61H80.7242V57.342H80.5382C80.0422 58.52 76.6942 61.62 70.9902 61.62ZM65.1002 44.88C65.1002 50.088 68.8822 53.064 72.9742 53.064C77.1902 53.064 80.9722 50.15 80.9722 44.88C80.9722 39.61 77.1902 36.696 72.9742 36.696C68.8822 36.696 65.1002 39.672 65.1002 44.88Z" fill="#010B08"/>
<path d="M47.4448 61.372C41.4928 61.372 37.1528 58.458 37.1528 51.08V36.386H32.3788V28.76H37.1528V20.514H46.7628V28.76H53.5208V36.386H46.7628V49.53C46.7628 51.142 47.6928 52.878 50.6068 52.878C51.3508 52.878 52.4668 52.754 53.6448 52.382V59.698C52.4048 60.938 49.6768 61.372 47.4448 61.372Z" fill="#010B08"/>
<path d="M16.174 61.62C8.42401 61.62 2.03801 57.032 0.364014 50.584L8.30001 46.926C9.54001 49.902 11.896 52.754 16.05 52.754C18.964 52.754 21.63 51.328 21.63 47.918C21.63 45.314 20.204 44.074 15.988 42.4L13.26 41.346C7.37001 38.99 1.97601 35.766 1.97601 28.636C1.97601 21.01 8.36201 16.36 15.988 16.36C23.738 16.36 28.388 21.072 30.496 25.722L23.242 29.814C21.32 26.466 19.088 25.04 16.36 25.04C13.694 25.04 11.648 26.28 11.648 28.76C11.648 30.682 12.764 32.17 17.352 34.03L20.328 35.208C28.264 38.37 31.798 41.966 31.798 48.042C31.798 57.218 23.614 61.62 16.174 61.62Z" fill="#010B08"/>
<path fill-rule="evenodd" clip-rule="evenodd" d="M144 0H37V8V20H47V8H134V16H144V8V0Z" fill="#19EDBA"/>
</svg>
